<?xml version="1.0" encoding="UTF-8" standalone="no"?>
<svg width="650px" height="300px" viewBox="0 0 650 300" version="1.1" xmlns="http://www.w3.org/2000/svg" xmlns:xlink="http://www.w3.org/1999/xlink" xmlns:sketch="http://www.bohemiancoding.com/sketch/ns">
    <!-- Generator: Sketch 3.0.3 (7891) - http://www.bohemiancoding.com/sketch -->
    <title>placeholder</title>
    <desc>Created with Sketch.</desc>
    <defs></defs>
    <g id="Page-1" stroke="none" stroke-width="1" fill="none" fill-rule="evenodd" sketch:type="MSPage">
        <g id="placeholder" sketch:type="MSLayerGroup">
            <rect id="Rectangle-1" stroke="#E4E6DD" fill="#FCFEF5" sketch:type="MSShapeGroup" x="0" y="0" width="650" height="300"></rect>
            <path d="M335.567937,139.396533 L343.998272,139.396533 C346.210864,139.396533 348,141.18696 348,143.395564 L348,163.000968 C348,165.210127 346.208365,166.999999 343.998272,166.999999 L306.001728,166.999999 C303.789136,166.999999 302,165.209572 302,163.000968 L302,143.395564 C302,141.186405 303.791635,139.396533 306.001728,139.396533 L314.728823,139.396533 L319.301031,133.787113 C319.650305,133.358605 320.378533,133.01438 320.93074,133.01438 L328.97584,133.01438 C329.517992,133.01438 330.272728,133.353365 330.639132,133.771524 L335.567937,139.396533 Z M336.580637,137.396533 L345.99281,137.396533 C348.205732,137.396533 350,139.188558 350,141.399134 L350,164.997399 C350,167.21031 348.20592,169 345.99281,169 L304.00719,169 C301.794268,169 300,167.207975 300,164.997399 L300,141.399134 C300,139.186223 301.79408,137.396533 304.00719,137.396533 L313.358024,137.396533 C313.38968,137.347199 313.424684,137.297208 313.463085,137.246664 L317.004961,132.584817 C317.670519,131.708804 319.105633,131 320.211638,131 L329.298144,131 C330.400898,131 331.873106,131.692727 332.579152,132.547249 L336.493068,137.284233 C336.524265,137.32199 336.553448,137.359439 336.580637,137.396533 L336.580637,137.396533 Z M303.915816,134.237114 L303.915816,136.237114 L310.915816,136.237114 L310.915816,134.237114 L303.915816,134.237114 Z M324.915816,164.237114 C330.990948,164.237114 335.915816,159.312246 335.915816,153.237114 C335.915816,147.161981 330.990948,142.237114 324.915816,142.237114 C318.840683,142.237114 313.915816,147.161981 313.915816,153.237114 C313.915816,159.312246 318.840683,164.237114 324.915816,164.237114 Z M324.915816,161.237114 C329.334094,161.237114 332.915816,157.655392 332.915816,153.237114 C332.915816,148.818835 329.334094,145.237114 324.915816,145.237114 C320.497538,145.237114 316.915816,148.818835 316.915816,153.237114 C316.915816,157.655392 320.497538,161.237114 324.915816,161.237114 Z M338,142 L338,144 L340,144 L340,142 L338,142 Z" id="camera-L" fill="#E4E6DC" sketch:type="MSShapeGroup"></path>
        </g>
    </g>
</svg>